<?xml version="1.0" encoding="UTF-8" standalone="no"?>
<svg width="2400" height="600" viewBox="0 0 2400 600" xmlns="http://www.w3.org/2000/svg">
  <defs>
    <linearGradient id="oceanGradient1" x1="0%" y1="0%" x2="0%" y2="100%">
      <stop offset="0%" style="stop-color:#003366;stop-opacity:0.8" />
      <stop offset="100%" style="stop-color:#001a33;stop-opacity:0.9" />
    </linearGradient>
    <linearGradient id="oceanGradient2" x1="0%" y1="0%" x2="0%" y2="100%">
      <stop offset="0%" style="stop-color:#002244;stop-opacity:0.8" />
      <stop offset="100%" style="stop-color:#001122;stop-opacity:0.9" />
    </linearGradient>
    <linearGradient id="oceanGradient3" x1="0%" y1="0%" x2="0%" y2="100%">
      <stop offset="0%" style="stop-color:#001428;stop-opacity:0.9" />
      <stop offset="100%" style="stop-color:#000a14;stop-opacity:1" />
    </linearGradient>
  </defs>
  
  <!-- First wave layer -->
  <path d="M0,100 
           C300,180 600,60 900,120 
           C1200,180 1500,80 1800,140 
           C2100,200 2300,100 2400,140 
           L2400,600 L0,600 Z" 
        fill="url(#oceanGradient1)" opacity="0.6" />
  
  <!-- Second wave layer -->
  <path d="M0,200 
           C400,260 800,180 1200,240 
           C1600,300 2000,220 2400,280 
           L2400,600 L0,600 Z" 
        fill="url(#oceanGradient2)" opacity="0.7" />
  
  <!-- Third wave layer -->
  <path d="M0,320 
           C600,350 1200,300 1800,350 
           C2100,370 2300,340 2400,350 
           L2400,600 L0,600 Z" 
        fill="url(#oceanGradient3)" opacity="0.8" />
</svg> 